HIERARCHY
ROOT hips_JNT
{
  OFFSET 0.0 0.0 0.0
  CHANNELS 6 Xposition Yposition Zposition Zrotation Xrotation Yrotation
  JOINT spine_JNT
  {
    OFFSET -0.000424 -2.543418169 9.319808006
    CHANNELS 3 Zrotation Xrotation Yrotation
    JOINT spine1_JNT
    {
      OFFSET -0.0 4.6014e-05 10.873098373
      CHANNELS 0 
      JOINT spine2_JNT
      {
        OFFSET -0.0 5.951159954 12.426398277
        CHANNELS 3 Zrotation Xrotation Yrotation
        JOINT neck_JNT
        {
          OFFSET -0.0 1.46048069 13.979696274
          CHANNELS 3 Zrotation Xrotation Yrotation
          JOINT head_JNT
          {
            OFFSET -0.0 -2.091498852 5.870200634
            CHANNELS 3 Zrotation Xrotation Yrotation
            End Site
            {
              OFFSET -0.0 -0.627449393 1.761060357
            }
          }
        }
        JOINT l_shoulder_JNT
        {
          OFFSET 4.399139881 1.485010624 12.860998154
          CHANNELS 0 
          JOINT l_arm_JNT
          {
            OFFSET 8.757349968 0.049051583 -2.311980963
            CHANNELS 3 Zrotation Xrotation Yrotation
            JOINT l_forearm_JNT
            {
              OFFSET 26.900102615 -1.2827e-05 -4.5882e-05
              CHANNELS 3 Zrotation Xrotation Yrotation
              JOINT l_hand_JNT
              {
                OFFSET 23.014799118 2.208e-06 -4.5899e-05
                CHANNELS 3 Zrotation Xrotation Yrotation
                JOINT l_handThumb1_JNT
                {
                  OFFSET 3.629997015 -2.130000114 -0.779999137
                  CHANNELS 0 
                  JOINT l_handThumb2_JNT
                  {
                    OFFSET 3.551140547 -2.240059376 -2.118370533
                    CHANNELS 0 
                    JOINT l_handThumb3_JNT
                    {
                      OFFSET 2.159111738 -0.963467896 -1.11631012
                      CHANNELS 0 
                      End Site
                      {
                        OFFSET 0.647733569 -0.289040536 -0.334893018
                      }
                    }
                  }
                }
                JOINT l_handIndex1_JNT
                {
                  OFFSET 10.514901161 -2.197570086 -0.041019067
                  CHANNELS 0 
                  JOINT l_handIndex2_JNT
                  {
                    OFFSET 2.75183177 0.139053389 -0.102867015
                    CHANNELS 0 
                    JOINT l_handIndex3_JNT
                    {
                      OFFSET 2.353012562 0.090486437 -0.073399
                      CHANNELS 0 
                      End Site
                      {
                        OFFSET 0.705903769 0.027145931 -0.022019701
                      }
                    }
                  }
                }
                JOINT l_handMiddle1_JNT
                {
                  OFFSET 10.067101479 -0.059572894 0.139202058
                  CHANNELS 0 
                  JOINT l_handMiddle2_JNT
                  {
                    OFFSET 3.909027576 0.119065963 -0.288403004
                    CHANNELS 0 
                    JOINT l_handMiddle3_JNT
                    {
                      OFFSET 2.32840085 0.059439652 -0.019107981
                      CHANNELS 0 
                      End Site
                      {
                        OFFSET 0.698520303 0.017831825 -0.005732394
                      }
                    }
                  }
                }
                JOINT l_handRing1_JNT
                {
                  OFFSET 9.468109131 1.809830785 0.132240131
                  CHANNELS 0 
                  JOINT l_handRing2_JNT
                  {
                    OFFSET 3.281532049 0.033936869 -0.224051952
                    CHANNELS 0 
                    JOINT l_handRing3_JNT
                    {
                      OFFSET 2.245003462 0.008389018 -0.070213005
                      CHANNELS 0 
                      End Site
                      {
                        OFFSET 0.673501074 0.002516777 -0.021063901
                      }
                    }
                  }
                }
                JOINT l_handPinky1_JNT
                {
                  OFFSET 8.490768433 3.584150553 -0.077769808
                  CHANNELS 0 
                  JOINT l_handPinky2_JNT
                  {
                    OFFSET 2.532173157 0.017040448 -0.073073991
                    CHANNELS 0 
                    JOINT l_handPinky3_JNT
                    {
                      OFFSET 1.951210499 -0.017009472 0.025116015
                      CHANNELS 0 
                      End Site
                      {
                        OFFSET 0.58536315 -0.005102842 0.007534805
                      }
                    }
                  }
                }
              }
            }
          }
        }
        JOINT r_shoulder_JNT
        {
          OFFSET -4.397819996 1.485010743 12.860598564
          CHANNELS 0 
          JOINT r_arm_JNT
          {
            OFFSET -8.757320404 0.049051426 -2.31200099
            CHANNELS 3 Zrotation Xrotation Yrotation
            JOINT r_forearm_JNT
            {
              OFFSET -26.900005341 -1.2219e-05 -2.462e-06
              CHANNELS 3 Zrotation Xrotation Yrotation
              JOINT r_hand_JNT
              {
                OFFSET -23.014904022 -6.323e-06 -2.107e-06
                CHANNELS 3 Zrotation Xrotation Yrotation
                JOINT r_handThumb1_JNT
                {
                  OFFSET -3.629997015 -2.130002975 -0.779999495
                  CHANNELS 0 
                  JOINT r_handThumb2_JNT
                  {
                    OFFSET -3.55120182 -2.240064621 -2.118001223
                    CHANNELS 0 
                    JOINT r_handThumb3_JNT
                    {
                      OFFSET -2.159103394 -0.963468254 -1.116001487
                      CHANNELS 0 
                      End Site
                      {
                        OFFSET -0.647731066 -0.289040416 -0.334800452
                      }
                    }
                  }
                }
                JOINT r_handIndex1_JNT
                {
                  OFFSET -10.514903069 -2.197566986 -0.040998124
                  CHANNELS 0 
                  JOINT r_handIndex2_JNT
                  {
                    OFFSET -2.751802206 0.139048159 -0.102997296
                    CHANNELS 0 
                    JOINT r_handIndex3_JNT
                    {
                      OFFSET -2.352998257 0.090488635 -0.07300625
                      CHANNELS 0 
                      End Site
                      {
                        OFFSET -0.705899477 0.027146591 -0.021901878
                      }
                    }
                  }
                }
                JOINT r_handMiddle1_JNT
                {
                  OFFSET -10.067105293 -0.059575193 0.139998019
                  CHANNELS 0 
                  JOINT r_handMiddle2_JNT
                  {
                    OFFSET -3.909104347 0.119068667 -0.288998425
                    CHANNELS 0 
                    JOINT r_handMiddle3_JNT
                    {
                      OFFSET -2.328400612 0.059438411 -0.019001223
                      CHANNELS 0 
                      End Site
                      {
                        OFFSET -0.698520184 0.017831525 -0.005700367
                      }
                    }
                  }
                }
                JOINT r_handRing1_JNT
                {
                  OFFSET -9.46810627 1.809824586 0.133002236
                  CHANNELS 0 
                  JOINT r_handRing2_JNT
                  {
                    OFFSET -3.281602144 0.033936866 -0.224995404
                    CHANNELS 0 
                    JOINT r_handRing3_JNT
                    {
                      OFFSET -2.245003939 0.008389308 -0.070000261
                      CHANNELS 0 
                      End Site
                      {
                        OFFSET -0.673501194 0.002516649 -0.021000076
                      }
                    }
                  }
                }
                JOINT r_handPinky1_JNT
                {
                  OFFSET -8.490804672 3.584145784 -0.076996565
                  CHANNELS 0 
                  JOINT r_handPinky2_JNT
                  {
                    OFFSET -2.532204866 0.017038271 -0.074005239
                    CHANNELS 0 
                    JOINT r_handPinky3_JNT
                    {
                      OFFSET -1.951202989 -0.017011244 0.026000841
                      CHANNELS 0 
                      End Site
                      {
                        OFFSET -0.585360944 -0.005103481 0.007800251
                      }
                    }
                  }
                }
              }
            }
          }
        }
      }
    }
  }
  JOINT l_upleg_JNT
  {
    OFFSET 10.061400414 0.706233501 -5.185750008
    CHANNELS 3 Zrotation Xrotation Yrotation
    JOINT l_leg_JNT
    {
      OFFSET -0.348571867 0.819178462 -45.582382202
      CHANNELS 3 Zrotation Xrotation Yrotation
      JOINT l_foot_JNT
      {
        OFFSET 0.349144816 1.708507657 -42.33247757
        CHANNELS 3 Zrotation Xrotation Yrotation
        JOINT l_toebase_JNT
        {
          OFFSET 0.07027097 -12.888691902 -8.126660347
          CHANNELS 3 Zrotation Xrotation Yrotation
          End Site
          {
            OFFSET 0.021081284 -3.866608381 -2.437997341
          }
        }
      }
    }
  }
  JOINT r_upleg_JNT
  {
    OFFSET -10.06099987 0.70623374 -5.185770035
    CHANNELS 3 Zrotation Xrotation Yrotation
    JOINT r_leg_JNT
    {
      OFFSET 0.348579884 0.819166601 -45.582389832
      CHANNELS 3 Zrotation Xrotation Yrotation
      JOINT r_foot_JNT
      {
        OFFSET -0.349179864 1.708495259 -42.332492828
        CHANNELS 3 Zrotation Xrotation Yrotation
        JOINT r_toebase_JNT
        {
          OFFSET -0.070200011 -12.888694763 -8.126663208
          CHANNELS 3 Zrotation Xrotation Yrotation
          End Site
          {
            OFFSET -0.021059996 -3.866609335 -2.437997818
          }
        }
      }
    }
  }
}
MOTION
Frames: 13
Frame Time: 0.03333333333333333
-9.185720444 17.348690033 90.462631226 36.485630035 3.52488637 7.77678442 0.000671035 -0.048139066 0.802859962 9.99822998 -0.006306265 -5.161047935 -2.13482976 -4.027797222 -2.788985491 4.568350315 26.862552643 -14.535564423 -53.157341003 -9.563055992 -17.393959045 -12.26651001 3.936240673 -35.46811676 9.700444221 14.02762413 47.227584839 104.231330872 -72.890190125 -15.41724968 61.590904236 -0.581317544 -0.975359142 -90.000015259 -1.8783e-05 134.999893188 -25.763174057 -37.272258759 -29.426620483 -1.924838066 41.486606598 1.805896878 -10.687476158 -5.788158894 13.37155056 -0.314033985 -0.821494758 -0.002236014 12.049494743 -1.501136303 24.170593262 -2.16414094 1.842426062 -0.315691173 -1.965989351 34.510398865 7.394316673 14.150887489 -32.11114502 4.090549469 
-10.967000008 17.191383362 90.03263855 39.241931915 4.805352211 7.554307938 0.001312945 -0.044815503 1.681890011 8.408574104 0.00950042 -5.621460438 -2.581304789 -6.613304615 -3.333649635 4.316012383 27.53886795 -13.481145859 -52.619590759 -9.630282402 -17.462890625 -11.342058182 4.279438019 -41.237308502 7.199422359 12.228252411 52.42792511 114.224472046 -55.608661652 -5.711245537 56.293205261 2.50513339 4.680624485 -90.000038147 -1.7075e-05 130.204315186 -24.96354866 -39.902542114 -30.105134964 -2.140166521 39.697273254 1.906423688 -14.935868263 -3.926413298 13.531935692 -0.309008002 -0.821600795 -0.002167024 15.431610107 -8.554873466 23.884687424 -0.860505939 20.998369217 -0.132008031 -1.788086295 24.839235306 4.6118083 15.067703247 -35.7094841 4.87772274 
-12.781498909 17.023880005 89.328826904 42.793819427 6.471096039 7.195505142 0.00153197 -0.033308305 2.63679862 5.729424477 0.018426649 -6.046181679 -3.885295868 -9.02948761 -4.963201523 3.547436476 28.179262161 -10.904166222 -52.396865845 -9.974038124 -16.857944489 -10.776181221 4.493257046 -45.169303894 5.825937748 11.066353798 54.708854675 117.113349915 -30.204284668 -3.190268517 47.460090637 3.972213984 9.020981789 -90.000015259 -2.5613e-05 121.325431824 -24.375204086 -43.49678421 -30.879951477 -2.155234098 38.209434509 1.874335647 -12.23488903 -1.610957623 12.791465759 -1e-06 0.0 -1e-06 16.512247086 -11.802089691 23.520776749 0.771178126 31.043586731 -0.896499932 -1.961093783 19.89430809 2.329363108 15.857650757 -39.556751251 5.733238697 
-14.83880043 16.961589813 88.473526001 47.222171783 7.946086884 6.438943863 0.057026017 -0.016354164 3.413480043 3.113538027 0.016767262 -6.49390316 -4.238246918 -8.818873405 -5.418564796 2.742634535 27.519842148 -8.595450401 -53.303852081 -11.060523987 -14.379094124 -11.175285339 4.82652998 -46.610702515 5.389091015 10.851563454 53.080516815 116.429740906 -12.769080162 -3.088818789 45.739810944 1.527937889 3.621449947 -90.000022888 -3.415e-06 120.783714294 -23.313497543 -47.353801727 -30.454267502 -2.004300356 36.275966644 1.724030018 -9.490858078 0.807564378 11.133592606 -4e-06 -0.0 1e-06 16.737878799 -13.119568825 24.538232803 2.408004999 37.020111084 -5.373328686 -2.360120296 17.316839218 2.432132483 19.080245972 -48.988681793 10.290940285 
-17.349500656 17.008892059 87.716629028 51.459209442 8.604623795 5.139245987 0.040821087 -0.01573186 4.185604095 2.740279675 0.021633344 -6.932787895 -2.494764328 -4.729010582 -3.248273134 2.47129631 25.243068695 -8.259460449 -55.641220093 -12.743700027 -10.469518661 -12.534100533 4.902812958 -42.595310211 5.732343197 11.056576729 45.372650146 113.015594482 -1.72689271 -3.352146626 52.380695343 -0.368502557 -0.749205351 -90.000015259 -3.415e-06 128.173599243 -20.835754395 -49.931659698 -28.060419083 -1.801198125 32.851333618 1.510914803 -6.702131748 3.345818758 8.943129539 -3e-06 -0.0 3e-06 17.425058365 -16.305789948 25.417743683 4.41603899 47.982494354 -8.126000404 -1.836576462 11.521391869 1.158564925 14.100406647 -40.463405609 3.84986949 
-20.391199112 17.10868454 87.378135681 52.921627045 8.133264542 3.726393223 0.004635412 -0.051760841 5.121903419 7.272372246 0.078597791 -7.210751057 -0.720682204 1.340561152 -0.965176046 2.397054434 23.804811478 -8.363570213 -58.528942108 -15.095616341 -5.564225197 -15.413151741 4.317364216 -31.129995346 7.037424564 11.837060928 29.934099197 106.738304138 -0.911598027 -3.530585051 62.269611359 -1.062695861 -1.759149194 -90.000007629 -2.3906e-05 134.999908447 -6.200822353 -52.005393982 -19.00177002 -0.04437758 26.953876495 0.494623423 -4.9097929 6.824255943 4.748566151 -0.0 0.0 2e-06 17.883178711 -18.760042191 25.837919235 4.771069527 56.373428345 -8.142538071 -0.86766398 5.763075829 0.492559165 10.067353249 -26.764415741 -1.408909559 
-23.846200943 17.180187225 87.606628418 48.899028778 6.767149925 3.325126886 0.079912961 -0.114406884 5.523994446 17.327394485 0.201535389 -7.148408413 -0.379898101 6.521857738 -0.524786174 2.215020418 24.76906395 -7.508507252 -57.574737549 -19.394666672 2.513639212 -22.339267731 4.516828537 -22.589805603 8.314163208 15.186420441 16.212123871 100.121765137 -3.260226727 -4.284436226 65.390312195 4.662305355 7.257910252 -90.000007629 -1.366e-05 134.999923706 -2.75235796 -47.927822113 -19.19200325 -0.146106422 20.069030762 0.534061074 -2.169508457 7.822066784 2.922990799 1e-06 0.0 1e-06 18.535223007 -19.850048065 24.990762711 1.675214529 59.225074768 -2.785964251 -0.100240901 -2.813048124 -2.041649342 7.021631718 -7.546909809 -4.041360855 
-27.361797333 17.130386353 88.262924194 39.587104797 5.312933445 4.865319729 0.013022427 -0.172048733 4.331363201 27.979099274 0.21615006 -6.480519772 0.192092001 10.560133934 0.277222008 2.041163206 26.014986038 -6.667742252 -20.113483429 -46.444988251 36.251064301 -54.562099457 2.993447542 -5.800772667 13.502633095 50.913047791 5.37726593 97.301811218 -10.580431938 -6.971480846 57.977397919 9.023382187 16.210922241 -90.000007629 -2.0491e-05 131.768096924 -5.819542885 -39.707897186 -26.923137665 -0.479228556 12.762140274 0.597226799 0.211431861 7.450078487 1.271939874 -3e-06 -0.0 1e-06 18.08032608 -17.478990555 21.997751236 -0.713350594 48.158638 1.622113228 -0.356484264 -5.169887543 -4.705564022 6.084370136 -18.947481155 0.032802526 
-30.420701981 16.823093414 89.005432129 28.42795372 4.744761944 7.954144001 0.003601148 -0.12056379 1.709253669 29.561700821 0.029369174 -4.396961689 3.667850971 13.819356918 5.302274704 2.215956211 25.430610657 -7.370477676 38.505496979 -14.588679314 70.014312744 -106.789978027 -10.034630775 7.462306023 29.450382233 72.309112549 -8.445036888 97.63936615 -39.136314392 -15.577688217 57.023292542 1.03453362 1.904355168 -90.000015259 -1.8783e-05 122.569519043 -9.083739281 -26.392442703 -35.594242096 0.399748653 1.455160379 0.446211189 -0.427582026 8.456849098 -0.55212611 2e-06 0.0 1e-06 17.797874451 -15.46478653 19.372348785 -0.241595954 35.102184296 0.420136064 -0.575263262 -6.802600384 -8.168519974 3.389720917 -19.630784988 0.722942412 
-32.542602539 16.070087433 89.531539917 18.186998367 4.799690723 11.338371277 -0.000175961 -0.00787715 -1.280360818 18.834852219 -0.04260271 -0.560418129 10.178523064 13.445092201 14.637384415 2.958402157 23.702531815 -10.351031303 53.381820679 3.853775978 75.817337036 -131.105010986 0.885002911 -0.402335495 34.300868988 73.705055237 -7.623999596 107.595733643 -44.599994659 -27.580896378 56.524803162 0.509207726 0.947178423 -90.000015259 -8.538e-06 113.897529602 -7.07148695 -19.548900604 -41.27337265 1.563257694 -1.281891108 0.44439429 -1.340130329 6.173655987 -6.689163208 -1e-06 -0.0 8e-06 11.469068527 -16.286064148 15.990726471 -0.208732903 24.430185318 -0.092421107 -0.501048744 -6.124345303 -13.550008774 1.216794014 -7.975915909 0.093259051 
-33.517597198 14.70388031 89.762023926 9.438285828 4.044415474 13.975215912 0.040165126 0.017359881 -1.904153824 8.469177246 -0.011275228 2.190701008 13.333372116 8.003670692 18.500041962 2.87348485 23.248918533 -10.199172974 62.019683838 -0.220400512 80.68170166 -135.635025024 8.256066322 -3.371097088 51.343818665 76.206596375 -18.200338364 70.72618103 -58.123825073 -75.385154724 48.13180542 -14.203395844 -31.17420578 -85.851150513 0.226658717 93.12084198 -4.725184917 -13.113276482 -44.679668427 2.87257719 -1.282792211 0.420925915 -2.262566566 4.637002945 -14.372566223 1e-06 -0.0 -5e-06 5.458995819 -16.666109085 12.207278252 -0.281753004 18.063457489 -0.490394026 0.019691471 -3.684246302 -19.250247955 0.47300908 -0.37067017 -0.016262976 
-33.544002533 12.702381134 89.84072876 1.602229357 2.319864988 15.293983459 -0.000387067 0.013939797 1.591942787 4.782556534 0.021071734 3.182458401 6.758903503 -0.550710082 8.979298592 -0.445447057 25.428628922 1.436338186 28.145727158 0.307349741 79.94519043 -129.802780151 57.08026886 -28.58416748 44.555580139 66.947799683 0.483375281 47.029983521 -37.205135345 -92.447349548 21.519010544 -13.924431801 -65.45098877 -56.2149086 -18.979301453 64.076042175 -11.982004166 5.491400242 -44.821311951 8.050351143 -1.291640043 0.328282118 -0.36693722 0.98739022 -20.438947678 -1e-06 -0.0 3e-06 4.73615694 -15.061270714 9.620909691 -0.48093918 13.842669487 -0.338738233 0.71656996 -1.632769704 -23.990381241 0.309010029 -0.807369828 0.002128022 
-33.142101288 10.258182526 89.958740234 -5.956850052 -1.028573751 15.358305931 0.037326518 0.017787883 8.563836098 5.261042118 0.077148311 3.227494478 -7.441422939 -5.609449387 -9.646356583 -6.015661716 24.837501526 20.197710037 8.1203022 3.842243671 82.635566711 -9.56799984 -9.544294357 89.856170654 2.674465418 -16.522434235 90.761131287 56.244243622 -9.656877518 -73.180030823 9.391304016 -6.43117857 -68.743003845 5.577981949 -44.864116669 93.941108704 -30.350837708 9.266722679 -38.745075226 13.084952354 33.290958405 -7.243567467 -6.085762501 -0.296903044 -15.530585289 -13.434689522 -27.942903519 -3.356019258 5.886940002 -13.147245407 9.012581825 -0.737752855 11.781001091 -0.292865098 7.667407513 -1.282282591 -23.725860596 0.311533064 -0.807448387 0.002164049 
